<?xml version="1.0" encoding="UTF-8"?>
<svg width="48px" height="48px" viewBox="0 0 48 48" version="1.1" xmlns="http://www.w3.org/2000/svg" xmlns:xlink="http://www.w3.org/1999/xlink">
    <!-- Generator: sketchtool 49.3 (51167) - http://www.bohemiancoding.com/sketch -->
    <title>C33E4C3F-BC02-4B40-9598-3DAF7F2146AC</title>
    <desc>Created with sketchtool.</desc>
    <defs></defs>
    <g id="XMR.to" stroke="none" stroke-width="1" fill="none" fill-rule="evenodd">
        <g id="xmr.to-site-down-warning-2" transform="translate(-451.000000, -519.000000)" fill="#FD681E" fill-rule="nonzero">
            <g id="Create-and-Track" transform="translate(347.000000, 384.000000)">
                <path d="M104.127659,139.399681 C103.951343,139.084877 104.007264,138.691456 104.264502,138.438494 L107.462865,135.239802 C107.717471,134.986183 108.110235,134.933552 108.422407,135.111184 L114.020117,138.309547 C114.209263,138.417771 114.346105,138.598692 114.399066,138.810206 L115.14512,141.792779 L125.380342,152.028001 L124.249747,153.158925 L113.854328,142.763505 C113.752025,142.661202 113.678998,142.532583 113.64413,142.391793 L112.924391,139.524352 L108.153985,136.798359 L105.819111,139.133233 L108.542473,143.901665 L111.409914,144.621075 C111.550375,144.656273 111.678664,144.72897 111.780967,144.831602 L122.176387,155.226693 L121.045463,156.357288 L110.810241,146.122066 L107.826023,145.376011 C107.614839,145.323051 107.434246,145.186208 107.326351,144.997063 L104.127659,139.399681 Z M142.404397,154.192809 C141.775119,154.190835 141.147486,154.125703 140.531037,153.9984 L136.338592,158.190845 L138.17215,160.024402 C138.484321,160.336574 138.484321,160.842825 138.17215,161.154997 L137.772149,161.554998 C137.77182,161.555656 137.771162,161.555985 137.770504,161.556642 C137.421161,161.906643 137.422148,162.47375 137.772149,162.823093 C138.123136,163.171778 138.689585,163.171778 139.040573,162.823093 L139.440245,162.423421 C139.752416,162.111249 140.258668,162.111249 140.57084,162.423421 L150.109678,171.961931 C150.123494,171.975747 150.13731,171.989562 150.150797,172.003378 C152.659685,174.534963 152.641264,178.621486 150.109678,181.130374 C147.577764,183.639262 143.49157,183.620841 140.982683,181.088927 L131.443844,171.550088 C131.131672,171.237916 131.131672,170.731665 131.443844,170.419493 L131.843516,170.019821 C131.844174,170.019163 131.844832,170.018505 131.845161,170.018176 C132.194503,169.667846 132.193846,169.10074 131.843516,168.751397 C131.492857,168.403041 130.926079,168.403041 130.575421,168.751397 L130.175749,169.151398 C129.863248,169.463569 129.357326,169.463569 129.044825,169.151398 L127.211268,167.317841 L123.018823,171.510285 C123.146126,172.126734 123.211258,172.754367 123.213232,173.383974 C123.213232,178.683329 118.917169,182.979392 113.617814,182.979392 C108.31813,182.979392 104.022067,178.683329 104.022067,173.383974 C104.022067,168.08429 108.31813,163.788227 113.617814,163.788227 C114.247092,163.790529 114.874725,163.855332 115.491174,163.982635 L133.003387,146.470751 C132.875755,145.854302 132.810952,145.226669 132.808979,144.597062 C132.806347,143.795415 132.904703,142.996729 133.101743,142.219754 C134.398785,137.09836 139.601758,133.998023 144.723481,135.295066 C144.865258,135.329934 144.994863,135.402961 145.097824,135.505921 C145.410325,135.818093 145.410654,136.324345 145.098482,136.636845 L140.120838,141.615476 L141.437947,145.563841 L145.387299,146.879962 L150.364942,141.905608 C150.467574,141.803305 150.595864,141.730608 150.736654,141.69541 C151.165273,141.588831 151.599156,141.849687 151.705735,142.278306 C151.903433,143.057585 152.002117,143.858244 151.999486,144.662194 C151.981722,149.943456 147.685659,154.210572 142.404397,154.192809 Z M139.716232,152.555305 L139.716232,152.554976 L139.711956,152.554976 C139.910641,152.356291 140.199128,152.276686 140.471826,152.344778 C141.129722,152.5132 141.806698,152.596752 142.485976,152.593463 C146.879736,152.570765 150.423166,148.990823 150.400798,144.597062 C150.400798,144.446733 150.395863,144.295745 150.386324,144.143113 L146.168221,148.361216 C145.954076,148.575032 145.637299,148.649703 145.350456,148.553979 L140.552418,146.954633 C140.313602,146.875357 140.126102,146.687856 140.046167,146.449369 L138.44715,141.651331 C138.351426,141.364159 138.426426,141.047382 138.640572,140.833566 L142.858674,136.613819 C142.029725,136.562174 141.197486,136.641122 140.392879,136.846714 C136.134974,137.93652 133.566546,142.271398 134.656023,146.529303 C134.724444,146.801673 134.644509,147.09016 134.445825,147.288845 L116.310254,165.425402 C116.110912,165.6231 115.823082,165.703034 115.550384,165.636258 C114.247092,165.304678 112.881628,165.304678 111.578335,165.636258 C107.269772,166.7333 104.666476,171.115218 105.76319,175.423452 C106.860232,179.732015 111.24215,182.335311 115.550384,181.238269 C119.858947,180.141556 122.462243,175.759637 121.365201,171.451403 C121.297438,171.178705 121.377372,170.890218 121.576386,170.691533 L139.716232,152.555305 Z M137.372805,150.759577 L119.780987,168.351725 L118.650063,167.220801 L136.242211,149.628982 L137.372805,150.759577 Z M116.702032,168.974095 L119.100722,172.972131 C119.253025,173.225421 119.253025,173.542198 119.100722,173.795817 L116.702032,177.793853 C116.557295,178.034314 116.297426,178.181683 116.016504,178.181683 L111.218795,178.181683 C110.938202,178.181683 110.678004,178.034314 110.533596,177.793853 L108.134577,173.795817 C107.982274,173.542198 107.982274,173.225421 108.134577,172.972131 L110.533596,168.974095 C110.678004,168.733305 110.938202,168.586265 111.218795,168.586265 L116.016504,168.586265 C116.297426,168.586265 116.557295,168.733305 116.702032,168.974095 Z M115.5642,176.582337 L117.483284,173.383974 L115.5642,170.185282 L111.671428,170.185282 L109.752344,173.383974 L111.671428,176.582337 L115.5642,176.582337 Z M145.546181,181.380375 C146.13105,181.381033 146.710986,181.275769 147.258027,181.070177 C149.764941,180.12774 151.033036,177.331681 150.090599,174.824767 L143.845519,181.070177 C144.38927,181.274453 144.965258,181.379388 145.546181,181.380375 Z M136.487277,160.597759 L135.207669,159.32144 L128.334955,166.183956 L129.614234,167.463236 C130.541539,166.683958 131.894832,166.682971 132.823123,167.461262 C133.879376,168.346461 134.018192,169.920807 133.132664,170.97706 L142.113278,179.958332 C142.210975,180.056029 142.313936,180.147148 142.41887,180.234977 L149.255729,173.398118 C149.167571,173.293513 149.076452,173.190552 148.979084,173.092855 L140.005378,164.111254 C139.078073,164.890861 137.725109,164.891519 136.796817,164.113557 C135.740565,163.228357 135.601749,161.654011 136.487277,160.597759 Z M145.369535,175.217202 L144.238612,176.348126 L136.24254,168.352054 L137.373134,167.22113 L145.369535,175.217202 Z" id="Icons/48px_maintenance"></path>
            </g>
        </g>
    </g>
</svg>