<?xml version="1.0" encoding="UTF-8"?>
<svg width="45px" height="45px" viewBox="0 0 45 45" version="1.1" xmlns="http://www.w3.org/2000/svg" xmlns:xlink="http://www.w3.org/1999/xlink">
    <!-- Generator: sketchtool 49.3 (51167) - http://www.bohemiancoding.com/sketch -->
    <title>0B55E60D-6254-4B08-926A-87984FB2E842</title>
    <desc>Created with sketchtool.</desc>
    <defs></defs>
    <g id="XMR.to" stroke="none" stroke-width="1" fill="none" fill-rule="evenodd">
        <g id="xmr.to-tracking-5---error" transform="translate(-416.000000, -501.000000)" fill="#FF5151" fill-rule="nonzero">
            <g id="Create-and-Track" transform="translate(347.000000, 384.000000)">
                <g id="Content" transform="translate(69.000000, 114.000000)">
                    <g id="Icon/error" transform="translate(0.000000, 3.000000)">
                        <path d="M22.2250004,40.4500008 C12.1596106,40.4500008 4,32.2903902 4,22.2250004 C4,12.1596106 12.1596106,4 22.2250004,4 C32.2903902,4 40.4500008,12.1596106 40.4500008,22.2250004 C40.4500008,32.2903902 32.2903902,40.4500008 22.2250004,40.4500008 Z M22.2250042,39.0400047 C31.5116726,39.0400047 39.0400047,31.5116726 39.0400047,22.2250042 C39.0400047,12.9383358 31.5116726,5.41000366 22.2250042,5.41000366 C12.9383358,5.41000366 5.41000366,12.9383358 5.41000366,22.2250042 C5.41000366,31.5116726 12.9383358,39.0400047 22.2250042,39.0400047 Z" id="Oval"></path>
                        <path d="M22.2250004,44.4500008 C9.95047161,44.4500008 0,34.4995292 0,22.2250004 C0,9.95047161 9.95047161,0 22.2250004,0 C34.4995292,0 44.4500008,9.95047161 44.4500008,22.2250004 C44.4500008,34.4995292 34.4995292,44.4500008 22.2250004,44.4500008 Z M22.2250137,43.030014 C33.7152981,43.030014 43.030014,33.7152981 43.030014,22.2250137 C43.030014,10.7347293 33.7152981,1.42001343 22.2250137,1.42001343 C10.7347293,1.42001343 1.42001343,10.7347293 1.42001343,22.2250137 C1.42001343,33.7152981 10.7347293,43.030014 22.2250137,43.030014 Z" id="Oval"></path>
                        <path d="M25.5150157,22.2660303 L32.4308213,29.1818359 L29.051831,32.5608262 L22.1360254,25.6450206 L15.249602,32.531444 L11.8999939,29.1818359 L18.7864173,22.2954125 L11.9548061,15.4638013 L15.3337964,12.084811 L22.1654076,18.9164222 L29.051831,12.0299988 L32.4014391,15.3796069 L25.5150157,22.2660303 Z M30.1977492,29.1818359 L23.2819436,22.2660303 L30.1683671,15.3796069 L29.051831,14.2630708 L22.1654076,21.1494943 L15.3337964,14.3178831 L14.1878782,15.4638013 L21.0194894,22.2954125 L14.133066,29.1818359 L15.249602,30.2983719 L22.1360254,23.4119485 L29.051831,30.3277541 L30.1977492,29.1818359 Z" id="Combined-Shape" transform="translate(22.165408, 22.295412) rotate(-360.000000) translate(-22.165408, -22.295412) "></path>
                    </g>
                </g>
            </g>
        </g>
    </g>
</svg>