<?xml version="1.0" encoding="UTF-8"?>
<svg width="57px" height="56px" viewBox="0 0 57 56" version="1.1" xmlns="http://www.w3.org/2000/svg" xmlns:xlink="http://www.w3.org/1999/xlink">
    <!-- Generator: sketchtool 49.3 (51167) - http://www.bohemiancoding.com/sketch -->
    <title>9F86756F-8A15-4253-BA08-FCFB4B32A5C5</title>
    <desc>Created with sketchtool.</desc>
    <defs></defs>
    <g id="XMR.to" stroke="none" stroke-width="1" fill="none" fill-rule="evenodd">
        <g id="xmr.to-tracking-3---in-progress" transform="translate(-403.000000, -486.000000)" fill="#FD681E" fill-rule="nonzero">
            <g id="Create-and-Track" transform="translate(347.000000, 384.000000)">
                <g id="Content" transform="translate(56.000000, 102.000000)">
                    <g id="Icon/processing-order">
                        <path d="M49.2708758,27.9777241 L47.4460285,27.9777241 C47.4460285,38.5427699 38.8501782,47.1386202 28.2851324,47.1386202 C17.7200866,47.1386202 9.12423625,38.5427699 9.12423625,27.9777241 C9.12423625,18.2150585 16.4690683,10.1493762 25.9212068,8.9785514 L23.9903259,10.9094323 L25.2805499,12.1992109 L29.5753564,7.90440433 L25.2805499,3.61004331 L23.9903259,4.89982185 L26.1876273,7.09712316 C15.5971868,8.15300407 7.299389,17.1137347 7.299389,27.9777241 C7.299389,39.5500891 16.7127673,48.9634675 28.2851324,48.9634675 C39.8574975,48.9634675 49.2708758,39.5500891 49.2708758,27.9777241 Z" id="Shape"></path>
                        <polygon id="Shape" points="21.8714358 0.413441955 23.6601961 0.0570264766 24.0166115 1.84667767 22.2278513 2.20264766"></polygon>
                        <polygon id="Shape" points="16.6178717 2.19462837 18.3037169 1.49605403 19.0018458 3.18189924 17.316446 3.88047358"></polygon>
                        <polygon id="Shape" points="11.811609 4.96664969 13.3277113 3.95309315 14.3417134 5.47053211 12.8251655 6.48364305"></polygon>
                        <polygon id="Shape" points="7.63932029 8.62258141 8.92954433 7.33235738 10.2202138 8.62258141 8.92954433 9.91325105"></polygon>
                        <path d="M7.80683557,11.2204048 L6.39498467,10.063391 C2.27081209,15.0982052 0,21.459776 0,27.9777241 C0,34.9487652 2.55861765,41.6449211 7.20360231,46.8352215 L8.56288187,45.6176171 C4.21817719,40.7636838 1.82484725,34.4992363 1.82484725,27.9777241 C1.82484725,21.8803462 3.9490835,15.9295443 7.80683557,11.2204048 Z" id="Shape"></path>
                        <polygon id="Shape" points="32.5532077 54.1056517 34.341968 53.7492363 34.6983834 55.5379965 32.9096232 55.8944119"></polygon>
                        <polygon id="Shape" points="37.5661914 52.7731033 39.2520367 52.074529 39.9501655 53.7603742 38.2647658 54.4589485"></polygon>
                        <polygon id="Shape" points="42.2249872 50.484025 43.7410896 49.4709139 44.7550916 50.9879074 43.2385438 52.0014638"></polygon>
                        <polygon id="Shape" points="46.3496054 47.3342031 47.6398295 46.0435336 48.9300535 47.3342031 47.6398295 48.6244272"></polygon>
                        <path d="M49.3666625,9.1206721 L48.0073829,10.3382764 C52.3520876,15.1922098 54.7454175,21.4566573 54.7454175,27.9777241 C54.7454175,34.0764384 52.6211813,40.0272403 48.7634292,44.7363799 L50.1752801,45.8933936 C54.2994527,40.8585795 56.5702648,34.4970087 56.5702648,27.9777241 C56.5702648,21.0071283 54.0116471,14.310527 49.3666625,9.1206721 Z" id="Shape"></path>
                        <path d="M32.7915324,27.8000031 C33.8292554,26.9612954 34.4923016,25.67988 34.4923016,24.2461569 C34.4923016,22.6652031 33.6850708,21.27108 32.4615324,20.4506492 L32.4615324,17.6461569 L30.4307631,17.6461569 L30.4307631,19.7287107 C30.2622093,19.7094184 30.0967016,19.6769261 29.9230708,19.6769261 L26.3692247,19.6769261 L26.3692247,17.6461569 L24.3384554,17.6461569 L24.3384554,19.6769261 L22.3076862,19.6769261 L22.3076862,35.92308 L24.3384554,35.92308 L24.3384554,37.9538492 L26.3692247,37.9538492 L26.3692247,35.92308 L29.9230708,35.92308 C30.0967016,35.92308 30.2622093,35.8905877 30.4307631,35.8712954 L30.4307631,37.9538492 L32.4615324,37.9538492 L32.4615324,35.1493569 C33.6850708,34.3289261 34.4923016,32.9337877 34.4923016,31.3538492 C34.4923016,29.9201261 33.8292554,28.6387107 32.7915324,27.8000031 Z M29.9230708,33.8923107 L24.3384554,33.8923107 L24.3384554,28.8153877 L29.9230708,28.8153877 C31.3232862,28.8153877 32.4615324,29.9546492 32.4615324,31.3538492 C32.4615324,32.7530492 31.3232862,33.8923107 29.9230708,33.8923107 Z M29.9230708,26.7846184 L24.3384554,26.7846184 L24.3384554,21.7076954 L29.9230708,21.7076954 C31.3232862,21.7076954 32.4615324,22.8469569 32.4615324,24.2461569 C32.4615324,25.6453569 31.3232862,26.7846184 29.9230708,26.7846184 Z" id="Shape"></path>
                        <rect id="Rectangle-path" x="36.5230708" y="26.7846184" width="2.03076923" height="2.03076923"></rect>
                        <rect id="Rectangle-path" x="18.2461477" y="26.7846184" width="2.03076923" height="2.03076923"></rect>
                    </g>
                </g>
            </g>
        </g>
    </g>
</svg>