<?xml version="1.0" encoding="UTF-8"?>
<svg width="54px" height="51px" viewBox="0 0 54 51" version="1.1" xmlns="http://www.w3.org/2000/svg" xmlns:xlink="http://www.w3.org/1999/xlink">
    <!-- Generator: sketchtool 49.3 (51167) - http://www.bohemiancoding.com/sketch -->
    <title>7D31C6BF-F5B4-442B-B46D-98DEE7DAA0D7</title>
    <desc>Created with sketchtool.</desc>
    <defs></defs>
    <g id="XMR.to" stroke="none" stroke-width="1" fill="none" fill-rule="evenodd">
        <g id="xmr.to-tracking-4---done" transform="translate(-407.000000, -487.000000)" fill="#47CF76" fill-rule="nonzero">
            <g id="Create-and-Track" transform="translate(347.000000, 384.000000)">
                <g id="Content" transform="translate(56.000000, 102.000000)">
                    <g id="Icon/success" transform="translate(4.000000, 1.000000)">
                        <path d="M25.2250004,40.4500008 C15.1596106,40.4500008 7,32.2903902 7,22.2250004 C7,12.1596106 15.1596106,4 25.2250004,4 C35.2903902,4 43.4500008,12.1596106 43.4500008,22.2250004 C43.4500008,32.2903902 35.2903902,40.4500008 25.2250004,40.4500008 Z M25.2250042,39.0400047 C34.5116726,39.0400047 42.0400047,31.5116726 42.0400047,22.2250042 C42.0400047,12.9383358 34.5116726,5.41000366 25.2250042,5.41000366 C15.9383358,5.41000366 8.41000366,12.9383358 8.41000366,22.2250042 C8.41000366,31.5116726 15.9383358,39.0400047 25.2250042,39.0400047 Z" id="Oval"></path>
                        <path d="M1.93103448,37 L3.86206897,37 L3.86206897,38.9310345 L1.93103448,38.9310345 L1.93103448,37 Z M1.93103448,40.862069 L3.86206897,40.862069 L3.86206897,42.7931034 L1.93103448,42.7931034 L1.93103448,40.862069 Z M3.86206897,38.9310345 L5.79310345,38.9310345 L5.79310345,40.862069 L3.86206897,40.862069 L3.86206897,38.9310345 Z M-8.8817842e-16,38.9310345 L1.93103448,38.9310345 L1.93103448,40.862069 L-8.8817842e-16,40.862069 L-8.8817842e-16,38.9310345 Z" id="Combined-Shape"></path>
                        <path d="M11.9310345,45 L13.862069,45 L13.862069,46.9310345 L11.9310345,46.9310345 L11.9310345,45 Z M11.9310345,48.862069 L13.862069,48.862069 L13.862069,50.7931034 L11.9310345,50.7931034 L11.9310345,48.862069 Z M13.862069,46.9310345 L15.7931034,46.9310345 L15.7931034,48.862069 L13.862069,48.862069 L13.862069,46.9310345 Z M10,46.9310345 L11.9310345,46.9310345 L11.9310345,48.862069 L10,48.862069 L10,46.9310345 Z" id="Combined-Shape"></path>
                        <path d="M46.9310345,35 L48.862069,35 L48.862069,36.9310345 L46.9310345,36.9310345 L46.9310345,35 Z M46.9310345,38.862069 L48.862069,38.862069 L48.862069,40.7931034 L46.9310345,40.7931034 L46.9310345,38.862069 Z M48.862069,36.9310345 L50.7931034,36.9310345 L50.7931034,38.862069 L48.862069,38.862069 L48.862069,36.9310345 Z M45,36.9310345 L46.9310345,36.9310345 L46.9310345,38.862069 L45,38.862069 L45,36.9310345 Z" id="Combined-Shape"></path>
                        <path d="M4.93103448,0 L6.86206897,0 L6.86206897,1.93103448 L4.93103448,1.93103448 L4.93103448,0 Z M4.93103448,3.86206897 L6.86206897,3.86206897 L6.86206897,5.79310345 L4.93103448,5.79310345 L4.93103448,3.86206897 Z M6.86206897,1.93103448 L8.79310345,1.93103448 L8.79310345,3.86206897 L6.86206897,3.86206897 L6.86206897,1.93103448 Z M3,1.93103448 L4.93103448,1.93103448 L4.93103448,3.86206897 L3,3.86206897 L3,1.93103448 Z" id="Combined-Shape"></path>
                        <path d="M49.9310345,12 L51.862069,12 L51.862069,13.9310345 L49.9310345,13.9310345 L49.9310345,12 Z M49.9310345,15.862069 L51.862069,15.862069 L51.862069,17.7931034 L49.9310345,17.7931034 L49.9310345,15.862069 Z M51.862069,13.9310345 L53.7931034,13.9310345 L53.7931034,15.862069 L51.862069,15.862069 L51.862069,13.9310345 Z M48,13.9310345 L49.9310345,13.9310345 L49.9310345,15.862069 L48,15.862069 L48,13.9310345 Z" id="Combined-Shape"></path>
                        <path d="M45.9310345,3 L47.862069,3 L47.862069,4.93103448 L45.9310345,4.93103448 L45.9310345,3 Z M45.9310345,6.86206897 L47.862069,6.86206897 L47.862069,8.79310345 L45.9310345,8.79310345 L45.9310345,6.86206897 Z M47.862069,4.93103448 L49.7931034,4.93103448 L49.7931034,6.86206897 L47.862069,6.86206897 L47.862069,4.93103448 Z M44,4.93103448 L45.9310345,4.93103448 L45.9310345,6.86206897 L44,6.86206897 L44,4.93103448 Z" id="Combined-Shape"></path>
                        <path d="M21.8812315,24.2864173 L18.0496203,20.4548061 L14.7000122,23.8044142 L21.8812315,30.9856335 L36.117263,16.749602 L32.7676549,13.3999939 L21.8812315,24.2864173 Z M32.7676549,15.633066 L33.884191,16.749602 L21.8812315,28.7525615 L16.9330843,23.8044142 L18.0496203,22.6878782 L21.8812315,26.5194894 L32.7676549,15.633066 Z" id="Shape"></path>
                    </g>
                </g>
            </g>
        </g>
    </g>
</svg>