<?xml version="1.0" encoding="UTF-8"?>
<svg width="42px" height="64px" viewBox="0 0 42 64" version="1.1" xmlns="http://www.w3.org/2000/svg" xmlns:xlink="http://www.w3.org/1999/xlink">
    <!-- Generator: sketchtool 49.3 (51167) - http://www.bohemiancoding.com/sketch -->
    <title>255B1660-CE8C-4457-83DB-172C0A9E6EA2</title>
    <desc>Created with sketchtool.</desc>
    <defs></defs>
    <g id="XMR.to" stroke="none" stroke-width="1" fill="none" fill-rule="evenodd">
        <g id="xmr.to-timeout-error-dialog" transform="translate(-562.000000, -242.000000)" fill="#FD681E" fill-rule="nonzero">
            <g id="POPUP" transform="translate(364.000000, 194.000000)">
                <g id="Icons/64px_timeout" transform="translate(219.000000, 80.000000) rotate(-180.000000) translate(-219.000000, -80.000000) translate(198.000000, 48.000000)">
                    <path d="M27.3915871,28.7070968 C30.7901935,27.3721806 33.6912516,25.0754753 35.7815054,22.0649978 C37.9214452,18.9826753 39.0526624,15.3631656 39.0526624,11.5977634 L39.0526624,9.8692129 L40.2842151,9.8692129 C40.8542968,9.8692129 41.3164731,9.40703656 41.3164731,8.83695484 L41.3164731,1.03225806 C41.3164731,0.462176344 40.8542968,0 40.2842151,0 L1.06790538,0 C0.497823656,0 0.0356473118,0.462176344 0.0356473118,1.03225806 L0.0356473118,8.83695484 C0.0356473118,9.40703656 0.497823656,9.8692129 1.06790538,9.8692129 L2.30042151,9.8692129 L2.30042151,11.5976258 C2.30042151,15.3633032 3.43136344,18.9828129 5.57102796,22.0648602 C7.66100645,25.0754753 10.5623398,27.3721806 13.9613591,28.7069591 C15.3063226,29.2352 16.1753462,30.4890495 16.1753462,31.9014538 L16.1753462,32.0228473 C16.1753462,33.4342882 15.3063226,34.6875871 13.9612215,35.2159656 C10.5622022,36.5514323 7.66086882,38.8486882 5.57089032,41.8593032 C3.43136344,44.9414882 2.30028387,48.5611355 2.30028387,52.3266753 L2.30028387,54.0548129 L1.06776774,54.0548129 C0.497686022,54.0548129 0.0355096774,54.5169892 0.0355096774,55.087071 L0.0355096774,62.8917677 C0.0355096774,63.4618495 0.497686022,63.9240258 1.06776774,63.9240258 L40.2842151,63.9240258 C40.8542968,63.9240258 41.3164731,63.4618495 41.3164731,62.8917677 L41.3164731,55.087071 C41.3164731,54.5169892 40.8542968,54.0548129 40.2842151,54.0548129 L39.0526624,54.0548129 L39.0526624,52.3266753 C39.0526624,48.5612731 37.9214452,44.9417634 35.7815054,41.8593032 C33.6915269,38.8488258 30.7904688,36.5517075 27.3915871,35.2159656 C26.0466237,34.6877247 25.1776,33.4342882 25.1776,32.0229849 L25.1776,31.9015914 C25.1776,30.4891871 26.0466237,29.2353376 27.3915871,28.7070968 Z M2.10016344,5.96686452 L30.2828731,5.96686452 C30.8529548,5.96686452 31.3151312,5.50468817 31.3151312,4.93460645 C31.3151312,4.36452473 30.8529548,3.90234839 30.2828731,3.90234839 L2.10016344,3.90234839 L2.10016344,2.06451613 L39.251957,2.06451613 L39.251957,3.90193548 L37.2654796,3.90193548 C36.6953978,3.90193548 36.2332215,4.36411183 36.2332215,4.93419355 C36.2332215,5.50427527 36.6953978,5.96645161 37.2654796,5.96645161 L39.251957,5.96645161 L39.251957,7.80469677 L2.10016344,7.80469677 L2.10016344,5.96686452 Z M39.251957,61.8596473 L2.10016344,61.8596473 L2.10016344,56.1194667 L39.251957,56.1194667 L39.251957,61.8596473 Z M26.6366624,37.1374796 C29.6536086,38.3232 32.2292989,40.3630796 34.0855742,43.036628 C35.9843785,45.7716989 36.9881462,48.9842237 36.9881462,52.3266753 L36.9881462,54.0548129 L4.3648,54.0548129 L4.36493763,52.3266753 C4.36493763,48.9839484 5.36843011,45.7714237 7.26695914,43.0364903 C9.12295914,40.3628043 11.6989247,38.3229247 14.7161462,37.1374796 C16.8567742,36.296671 18.24,34.2889978 18.24,32.0228473 L18.24,31.9014538 C18.24,29.6343398 16.8567742,27.6261161 14.7160086,26.7853075 C11.6987871,25.6004129 9.12295914,23.5609462 7.26682151,20.8873978 C5.36829247,18.1527398 4.3648,14.9403527 4.3648,11.5974882 L4.3648,9.86935054 L36.9881462,9.86935054 L36.9880086,11.5976258 C36.9880086,14.9402151 35.9843785,18.1526022 34.0854366,20.8875355 C32.2292989,23.5610839 29.653471,25.6005505 26.6368,26.7854452 C24.496172,27.6262538 23.1129462,29.6344774 23.1129462,31.9015914 L23.1129462,32.0229849 C23.1130839,34.2891355 24.4963097,36.2968086 26.6366624,37.1374796 Z" id="Shape"></path>
                    <path d="M21.6061247,12.6830642 C21.4339441,12.3261782 21.0726538,12.0994943 20.6765419,12.0994943 C20.2802925,12.0994943 19.9190022,12.3263158 19.7468215,12.6832018 C18.8963785,14.4457481 17.4048344,15.818376 15.5470452,16.547976 C12.949471,17.5686728 10.7314925,19.3253008 9.13286882,21.6283373 C7.83704086,23.4949352 7.00889462,25.6721739 6.73789247,27.9244233 C6.70265806,28.2175846 6.79459785,28.511847 6.99045161,28.7327502 C7.18630538,28.9536534 7.46749247,29.0800018 7.76271828,29.0800018 L33.590228,29.0800018 C33.8854538,29.0800018 34.1666409,28.9535158 34.3624946,28.7326126 C34.5583484,28.5117094 34.6502882,28.217447 34.6150538,27.9242857 C34.343914,25.6721739 33.5156301,23.4950728 32.2196645,21.6283373 C30.6207656,19.3253008 28.4032,17.5685352 25.8064516,16.547976 C23.9485247,15.8182384 22.4567054,14.4456104 21.6061247,12.6830642 Z M30.523871,22.8057997 C31.4191828,24.0952965 32.0377118,25.5071502 32.369686,27.0154857 L8.98339785,27.0154857 C9.31523441,25.5068749 9.93362581,24.0951588 10.8288,22.8055244 C12.1935828,20.8395545 14.0861935,19.3401653 16.3018323,18.46949 C18.0722237,17.774161 19.5804215,16.6129395 20.6765419,15.1240104 C21.7728,16.6129395 23.2811355,17.774161 25.0515269,18.46949 C27.2664774,19.3400276 29.1588129,20.8395545 30.523871,22.8057997 Z" id="Shape" transform="translate(20.676473, 20.589748) scale(1, -1) translate(-20.676473, -20.589748) "></path>
                    <path d="M34.7770495,4.53973333 C34.5114151,3.87454624 33.5961462,3.68956559 33.095157,4.20528172 C32.6961548,4.59286022 32.6961548,5.27662796 33.095157,5.66420645 C33.4375914,6.01696344 34.0140043,6.06141935 34.4139699,5.78174624 C34.8051269,5.50812903 34.9636817,4.98167742 34.7770495,4.53973333 C34.7524129,4.47779785 34.8032,4.60166882 34.7770495,4.53973333 Z" id="Shape"></path>
                </g>
            </g>
        </g>
    </g>
</svg>