<?xml version="1.0" encoding="UTF-8"?>
<svg width="112px" height="112px" viewBox="0 0 112 112" version="1.1" xmlns="http://www.w3.org/2000/svg" xmlns:xlink="http://www.w3.org/1999/xlink">
    <!-- Generator: sketchtool 49.3 (51167) - http://www.bohemiancoding.com/sketch -->
    <title>B6638C03-3882-468C-A31A-DC4A084B4109</title>
    <desc>Created with sketchtool.</desc>
    <defs></defs>
    <g id="XMR.to" stroke="none" stroke-width="1" fill="none" fill-rule="evenodd">
        <g id="Error---regional-access" transform="translate(-529.000000, -274.000000)" fill="#FD681E" fill-rule="nonzero">
            <path d="M567.754742,324.138857 C564.116923,324.138857 561.157448,327.709958 561.157448,332.099185 C561.157448,336.488412 564.116923,340.059731 567.754742,340.059731 C571.392562,340.059731 574.352036,336.488631 574.352036,332.099185 C574.352036,327.709739 571.392562,324.138857 567.754742,324.138857 Z M567.754742,336.778913 C565.957051,336.778913 564.438267,334.635815 564.438267,332.099185 C564.438267,329.562555 565.957051,327.419676 567.754742,327.419676 C569.552433,327.419676 571.071217,329.562774 571.071217,332.099185 C571.071217,334.636252 569.552433,336.778913 567.754742,336.778913 Z M602.162653,324.139076 C605.800472,324.139076 608.759947,327.709958 608.759947,332.099404 C608.759947,336.48885 605.800472,340.05995 602.162653,340.05995 C598.524833,340.05995 595.565359,336.488631 595.565359,332.099404 C595.565359,327.710176 598.524833,324.139076 602.162653,324.139076 Z M602.162653,336.778913 C603.960344,336.778913 605.479128,334.636033 605.479128,332.099185 C605.479128,329.562774 603.960344,327.419676 602.162653,327.419676 C600.36518,327.419676 598.846177,329.562774 598.846177,332.099185 C598.846177,334.635815 600.364962,336.778913 602.162653,336.778913 Z M597.584425,355.958293 C598.079457,357.052046 597.268331,358.275079 596.091016,358.275079 C595.466046,358.275079 594.869514,357.916547 594.595419,357.31039 C590.892193,349.12453 579.099139,348.989999 575.321319,357.313234 C574.946162,358.13836 573.973598,358.50258 573.148909,358.128079 C572.324001,357.752922 571.959125,356.780576 572.334064,355.955668 C577.273667,345.089022 592.702791,345.167773 597.584425,355.958293 Z M612.117766,318.423565 C613.192268,319.451254 612.447641,321.249383 610.983545,321.249601 C610.576013,321.249601 610.167824,321.098663 609.84998,320.7946 C607.146444,318.20897 603.651687,316.686905 599.911055,316.759093 C598.997334,316.776811 598.255989,316.058216 598.237614,315.152589 C598.21902,314.246963 598.93849,313.497524 599.844117,313.479149 C604.337469,313.386617 608.687978,315.143402 612.117766,318.423565 Z M570.073059,313.479149 C570.978905,313.497524 571.698156,314.246744 571.679344,315.152589 C571.661187,316.046841 570.930342,316.75953 570.040028,316.75953 C570.028653,316.75953 570.017497,316.759311 570.005903,316.759093 C569.917747,316.757343 569.829153,316.756468 569.740777,316.756468 C566.222396,316.756468 562.796326,318.184252 560.066977,320.7946 C559.749133,321.098663 559.340945,321.249601 558.933413,321.249601 C558.501381,321.249601 558.070005,321.08007 557.747785,320.742975 C557.121284,320.088037 557.144691,319.049628 557.799411,318.423565 C561.228761,315.143839 565.579926,313.383336 570.073059,313.479149 Z M567.940024,355.427386 C570.822498,361.11796 566.437865,369.299882 558.828413,369.300319 C551.73718,369.300319 547.042577,361.958618 549.99527,355.53173 C550.037927,355.439417 549.663426,356.140294 556.47772,343.540707 C557.028315,342.522861 558.081817,341.89636 559.236163,341.895704 C559.253226,341.895704 559.270288,341.895704 559.28757,341.896141 C560.461822,341.914954 561.517949,342.579518 562.04295,343.630176 L563.792735,347.130401 C564.197642,347.94109 563.869297,348.926124 563.058827,349.331468 C562.247482,349.736156 561.263105,349.407593 560.85776,348.59756 L559.231788,345.344523 L552.95562,356.947264 C551.057741,361.158647 554.074966,365.940313 558.713569,366.018188 C563.517109,366.089501 566.78524,361.243085 564.979674,356.84292 L564.298267,355.479886 C563.893141,354.669197 564.221485,353.684164 565.031956,353.279038 C565.842426,352.873475 566.827678,353.202257 567.232804,354.012727 L567.940024,355.427386 Z M633.439151,302.006127 C646.926864,325.367359 641.679917,354.605322 622.059754,371.929481 C621.378346,372.531044 620.342125,372.462575 619.74428,371.785543 C619.144686,371.106323 619.208998,370.069665 619.888218,369.47007 C638.36541,353.155007 643.287732,325.626141 630.59802,303.646755 C615.245678,277.05611 580.514673,269.10825 555.061749,286.596909 C554.314935,287.10966 553.293589,286.920441 552.78062,286.173627 C552.267869,285.426813 552.457088,284.405686 553.203902,283.892498 C580.207329,265.338306 617.111838,273.726291 633.439151,302.006127 Z M616.252149,374.450142 C616.750243,375.206581 616.54068,376.224208 615.784023,376.722302 C602.31709,385.589351 586.042059,388.2417 570.470091,384.068598 C527.782259,372.631232 514.746921,318.486127 547.032515,288.80957 C547.699704,288.196412 548.737237,288.239944 549.350394,288.907132 C549.96377,289.574321 549.92002,290.611854 549.252832,291.225012 C518.866866,319.155503 531.127609,370.130258 571.319062,380.899779 C584.894713,384.536943 599.096209,382.685658 611.308389,375.635113 C612.176172,375.133956 613.075018,374.578111 613.979769,373.982016 C614.736646,373.48414 615.753616,373.693265 616.252149,374.450142 Z" id="sad-icon"></path>
        </g>
    </g>
</svg>
