<?xml version="1.0" encoding="UTF-8"?>
<svg width="56px" height="56px" viewBox="0 0 56 56" version="1.1" xmlns="http://www.w3.org/2000/svg" xmlns:xlink="http://www.w3.org/1999/xlink">
    <!-- Generator: sketchtool 49.3 (51167) - http://www.bohemiancoding.com/sketch -->
    <title>800EB1F8-A5AC-4724-93BE-14D573578D8D-530-00000447D92D34B6</title>
    <desc>Created with sketchtool.</desc>
    <defs></defs>
    <g id="XMR.to" stroke="none" stroke-width="1" fill="none" fill-rule="evenodd">
        <g id="xmr.to-step-5---for-instant-operation" transform="translate(-349.000000, -357.000000)" fill="#47CF76" fill-rule="nonzero">
            <g id="CONTENT" transform="translate(96.000000, 119.000000)">
                <g id="Content" transform="translate(243.000000, 237.000000)">
                    <g id="Icons/56px_bitcoin-send" transform="translate(10.000000, 1.000000)">
                        <g transform="translate(0.000000, 0.500000)" id="Combined-Shape">
                            <path d="M28.1299377,14.1758913 C35.4694556,14.1758913 41.4406338,20.1470696 41.4406338,27.4865874 C41.4406338,34.8261053 35.4694556,40.7972835 28.1299377,40.7972835 C20.7904199,40.7972835 14.8192417,34.8261053 14.8192417,27.4865874 C14.8192417,20.1470696 20.7904199,14.1758913 28.1299377,14.1758913 Z M28.1299377,39.0225241 C34.4906757,39.0225241 39.6658744,33.8473254 39.6658744,27.4865874 C39.6658744,21.1258495 34.4906757,15.9506508 28.1299377,15.9506508 C21.7691998,15.9506508 16.5940011,21.1258495 16.5940011,27.4865874 C16.5940011,33.8473254 21.7691998,39.0225241 28.1299377,39.0225241 Z M31.6767946,27.4865874 C32.754961,28.2967651 33.4542162,29.5861279 33.4542162,31.0361064 C33.4542162,32.850798 32.3565274,34.4099242 30.792077,35.0967561 L30.792077,37.2477646 L29.0173175,37.2477646 L29.0173175,35.4730051 L27.242558,35.4730051 L27.242558,37.2477646 L25.4677985,37.2477646 L25.4677985,35.4730051 L22.8056593,35.4730051 L22.8056593,19.5001698 L25.4677985,19.5001698 L25.4677985,17.7254103 L27.242558,17.7254103 L27.242558,19.5001698 L29.0173175,19.5001698 L29.0173175,17.7254103 L30.792077,17.7254103 L30.792077,19.8764188 C32.3565274,20.5632507 33.4542162,22.1223769 33.4542162,23.9370685 C33.4542162,25.387047 32.754961,26.6764097 31.6767946,27.4865874 Z M24.5804188,21.2749293 L24.5804188,26.5992077 L29.0173175,26.5992077 C30.4850436,26.5992077 31.6794567,25.4047946 31.6794567,23.9370685 C31.6794567,22.4693424 30.4850436,21.2749293 29.0173175,21.2749293 L24.5804188,21.2749293 Z M29.0173175,33.6982456 C30.4850436,33.6982456 31.6794567,32.5038325 31.6794567,31.0361064 C31.6794567,29.5683803 30.4850436,28.3739672 29.0173175,28.3739672 L24.5804188,28.3739672 L24.5804188,33.6982456 L29.0173175,33.6982456 Z M53.8639502,5.30209394 L55.6387097,5.30209394 L55.6387097,7.07685342 L53.8639502,7.07685342 L53.8639502,5.30209394 Z M50.3144312,5.30209394 L52.0891907,5.30209394 L52.0891907,7.07685342 L50.3144312,7.07685342 L50.3144312,5.30209394 Z M53.8639502,10.6263724 L55.6387097,10.6263724 L55.6387097,12.4011319 L53.8639502,12.4011319 L53.8639502,10.6263724 Z M50.3144312,10.6263724 L52.0891907,10.6263724 L52.0891907,12.4011319 L50.3144312,12.4011319 L50.3144312,10.6263724 Z M0.621165818,47.8963214 L2.3959253,47.8963214 L2.3959253,49.6710809 L0.621165818,49.6710809 L0.621165818,47.8963214 Z M4.17068478,47.8963214 L5.94544426,47.8963214 L5.94544426,49.6710809 L4.17068478,49.6710809 L4.17068478,47.8963214 Z M0.621165818,42.572043 L2.3959253,42.572043 L2.3959253,44.3468025 L0.621165818,44.3468025 L0.621165818,42.572043 Z M4.17068478,42.572043 L5.94544426,42.572043 L5.94544426,44.3468025 L4.17068478,44.3468025 L4.17068478,42.572043 Z M55.3724958,46.121562 L43.2153933,54.9634137 L43.2153933,49.6710809 L7.72020374,49.6710809 L7.72020374,47.8963214 L44.9901528,47.8963214 L44.9901528,51.4777861 L52.3554046,46.121562 L44.9901528,40.7653379 L44.9901528,44.3468025 L28.1299377,44.3468025 C18.8328602,44.3468025 11.2697227,36.783665 11.2697227,27.4865874 C11.2697227,22.2262003 13.6594363,17.3615846 17.8256842,14.1403962 L18.911837,15.5442309 C15.1830673,18.4273277 13.0444822,22.7799253 13.0444822,27.4865874 C13.0444822,35.8048851 19.8116401,42.572043 28.1299377,42.572043 L43.2153933,42.572043 L43.2153933,37.2797102 L55.3724958,46.121562 Z M48.5396718,7.07685342 L10.382343,7.07685342 L10.382343,3.49538879 L3.01709111,8.8516129 L10.382343,14.207837 L10.382343,10.6263724 L28.1299377,10.6263724 C37.4270153,10.6263724 44.9901528,18.1895099 44.9901528,27.4865874 C44.9901528,32.7478619 42.6004392,37.6115903 38.4341913,40.8327787 L37.3480385,39.428944 C41.0768081,36.5467346 43.2153933,32.194137 43.2153933,27.4865874 C43.2153933,19.1682898 36.4482354,12.4011319 28.1299377,12.4011319 L12.1571024,12.4011319 L12.1571024,17.6934646 L-1.77635684e-15,8.8516129 L12.1571024,0.00976117714 L12.1571024,5.30209394 L48.5396718,5.30209394 L48.5396718,7.07685342 Z M35.2289757,26.5992077 L37.0037351,26.5992077 L37.0037351,28.3739672 L35.2289757,28.3739672 L35.2289757,26.5992077 Z M19.2561404,26.5992077 L21.0308998,26.5992077 L21.0308998,28.3739672 L19.2561404,28.3739672 L19.2561404,26.5992077 Z"></path>
                        </g>
                    </g>
                </g>
            </g>
        </g>
    </g>
</svg>